Coordinates
version=1
nRows=13
nColumns=40
inDegrees=yes

Units are S.I. units (second, meters, Newtons, ...)
Angles are in degrees.

endheader
time	pelvis_tilt	pelvis_list	pelvis_rotation	pelvis_tx	pelvis_ty	pelvis_tz	hip_flexion_r	hip_adduction_r	hip_rotation_r	knee_angle_r	knee_angle_r_beta	ankle_angle_r	subtalar_angle_r	mtp_angle_r	hip_flexion_l	hip_adduction_l	hip_rotation_l	knee_angle_l	knee_angle_l_beta	ankle_angle_l	subtalar_angle_l	mtp_angle_l	lumbar_extension	lumbar_bending	lumbar_rotation	arm_flex_r	arm_add_r	arm_rot_r	elbow_flex_r	pro_sup_r	wrist_flex_r	wrist_dev_r	arm_flex_l	arm_add_l	arm_rot_l	elbow_flex_l	pro_sup_l	wrist_flex_l	wrist_dev_l
     56.00000000	     -2.02151662	     -4.93111022	      2.04684831	      1.03291411	      0.94012416	      0.46556055	      7.48309015	      4.80062419	    -19.68586259	     13.25705075	     13.25705075	      9.37176566	      6.57503165	     -1.08400849	     27.50382731	    -14.70073603	     -3.84760676	     60.10372191	     60.10372191	      9.13039409	    -17.31658545	     10.28240415	     -8.12571170	      7.43407378	      4.07910583	     22.54738918	    -16.08027902	     -7.97643255	     63.39957960	     45.30913964	      0.00000000	      0.00000000	      1.35172080	     -7.21342267	      5.92934668	     33.21633471	     45.31689162	      0.00000000	      0.00000000
     56.01192857	     -2.19210005	     -4.77816892	      2.01860496	      1.03188318	      0.93978045	      0.46535379	      7.08475789	      4.64872531	    -19.87165897	     13.08641801	     13.08641801	      9.78493916	      7.10330528	     -1.28077704	     28.50739076	    -14.33861055	     -3.93295581	     57.63350016	     57.63350016	      9.27804311	    -17.30802219	     10.33613673	     -7.98075802	      7.41594032	      3.94967955	     24.50953569	    -15.84308187	     -8.01260359	     65.12373139	     45.26247124	      0.00000000	      0.00000000	     -0.02499360	     -7.21983349	      6.00515521	     32.25903398	     45.29173883	      0.00000000	      0.00000000
     56.02385714	     -2.34790567	     -4.69954346	      1.95189980	      1.03085601	      0.93940782	      0.46521520	      6.64323283	      4.63107833	    -19.83450521	     12.81571108	     12.81571108	     10.12054349	      7.32650145	     -1.37769383	     29.31229863	    -14.04988522	     -4.02417093	     54.89556895	     54.89556895	      9.37036460	    -17.16301743	     10.45037030	     -7.87508609	      7.44832140	      4.13386335	     26.39817013	    -15.93310245	     -8.05604466	     66.78086487	     45.21815013	      0.00000000	      0.00000000	     -1.30849506	     -7.15025726	      6.02055440	     31.63508024	     45.27434333	      0.00000000	      0.00000000
     56.03578571	     -2.39516475	     -4.62646935	      1.96894849	      1.02992724	      0.93910096	      0.46493089	      6.01745775	      4.62959871	    -19.90101770	     12.41453254	     12.41453254	     10.46714971	      7.65399375	     -1.45860059	     29.83182784	    -13.66098389	     -3.97339164	     51.90279248	     51.90279248	      9.32494846	    -17.05789673	     10.47976844	     -7.95341247	      7.55690210	      3.94599460	     28.11023336	    -15.67225047	     -7.86263184	     69.40109088	     45.13401924	      0.00000000	      0.00000000	     -2.67251811	     -7.13975236	      5.95835563	     30.94591173	     45.27042277	      0.00000000	      0.00000000
     56.04771429	     -2.50324389	     -4.57876693	      1.94857236	      1.02893839	      0.93865226	      0.46463434	      5.50260214	      4.64207041	    -19.91579781	     12.07233557	     12.07233557	     10.78995146	      7.92331029	     -1.55007449	     30.27668337	    -13.29753470	     -3.94293180	     48.74464133	     48.74464133	      9.30151490	    -16.74278926	     10.57374935	     -7.96534197	      7.64542024	      4.07338081	     29.66432229	    -15.72317381	     -7.71165360	     71.81252326	     45.05990405	      0.00000000	      0.00000000	     -3.84740705	     -7.06608113	      5.86273523	     30.44734616	     45.27403455	      0.00000000	      0.00000000
     56.05964286	     -2.61582041	     -4.52152866	      1.93604677	      1.02791234	      0.93812832	      0.46420092	      5.01303777	      4.62980218	    -19.89917931	     11.74616720	     11.74616720	     11.10711128	      8.15117565	     -1.64418016	     30.62845977	    -12.89738594	     -3.90422772	     45.48561629	     45.48561629	      9.29969554	    -16.24846258	     10.79387017	     -7.95487764	      7.72108736	      4.20938576	     31.18919270	    -15.72852895	     -7.61894984	     73.93087154	     44.99742469	      0.00000000	      0.00000000	     -4.91530229	     -7.01465985	      5.81310320	     29.99364163	     45.27036102	      0.00000000	      0.00000000
     56.07157143	     -2.89084075	     -4.57608294	      1.94687227	      1.02670942	      0.93724207	      0.46368102	      4.77166689	      4.71196333	    -19.88336978	     11.51516228	     11.51516228	     11.39941845	      8.26652763	     -1.75315935	     31.17340256	    -12.59510540	     -3.79039259	     42.27413232	     42.27413232	      9.42032880	    -15.41318073	     11.06969069	     -7.76205832	      7.90738169	      4.46971830	     32.82669385	    -15.97590312	     -7.69362681	     75.33249096	     44.96305337	      0.00000000	      0.00000000	     -5.85174625	     -6.86444658	      5.82797625	     29.65617666	     45.25563466	      0.00000000	      0.00000000
     56.08350000	     -2.97042467	     -4.57065558	      2.00394767	      1.02574956	      0.93668255	      0.46297409	      4.15796543	      4.73383124	    -20.18160394	     11.02314292	     11.02314292	     11.65295950	      8.94951541	     -1.87521479	     31.32190382	    -12.14422621	     -3.56844376	     38.85262759	     38.85262759	      9.31424366	    -14.70925789	     10.73526746	     -7.88754402	      8.04438650	      4.62201416	     33.47707486	    -16.16558161	     -7.26251868	     79.63805740	     44.82874355	      0.00000000	      0.00000000	     -6.71785382	     -6.82830824	      5.75206004	     29.25221551	     45.26865359	      0.00000000	      0.00000000
     56.09542857	     -3.06168349	     -4.56448788	      2.05216387	      1.02460103	      0.93613317	      0.46223638	      3.67940032	      4.75156070	    -20.16173142	     10.72498079	     10.72498079	     11.90055312	      9.09322576	     -1.94978380	     31.41567910	    -11.73635451	     -3.47099152	     35.42917729	     35.42917729	      9.41630580	    -13.61263994	     10.89385206	     -7.96895021	      8.12222510	      4.49525018	     34.85502661	    -15.98058120	     -7.29356797	     81.65077182	     44.77900978	      0.00000000	      0.00000000	     -7.49383495	     -6.78200194	      5.87376211	     28.76804559	     45.24387685	      0.00000000	      0.00000000
     56.10735714	     -3.27338834	     -4.57330658	      2.12306273	      1.02343483	      0.93531839	      0.46141662	      3.31852133	      4.78385104	    -20.18165074	     10.39759911	     10.39759911	     12.20112938	      9.25116537	     -2.04104517	     31.66121343	    -11.34901426	     -3.43978730	     32.17654553	     32.17654553	      9.48803719	    -12.29713247	     11.09277875	     -7.87822881	      8.16399570	      4.48055321	     36.06381352	    -15.90203062	     -7.24455486	     83.50523063	     44.72988016	      0.00000000	      0.00000000	     -8.20882555	     -6.76576390	      5.99787903	     28.38134095	     45.21782162	      0.00000000	      0.00000000
     56.11928571	     -3.46622516	     -4.57599112	      2.20623100	      1.02226855	      0.93453282	      0.46049117	      2.93407666	      4.80463125	    -20.19743263	     10.06316899	     10.06316899	     12.45015460	      9.39651382	     -2.10452596	     31.82359357	    -10.95982790	     -3.49768607	     29.02363421	     29.02363421	      9.56324713	    -10.87700647	     11.33498722	     -7.83652162	      8.20203140	      4.37002826	     37.14353575	    -15.77286295	     -7.13322811	     85.49327378	     44.67402044	      0.00000000	      0.00000000	     -8.86851687	     -6.78169645	      6.14744918	     27.99555131	     45.18830422	      0.00000000	      0.00000000
     56.13121429	     -3.63778774	     -4.62822056	      2.32186042	      1.02112179	      0.93371410	      0.45948901	      2.51727153	      4.88135641	    -20.24485397	      9.70965283	      9.70965283	     12.70238447	      9.52509377	     -2.14594626	     31.99586892	    -10.62704458	     -3.60525431	     26.18200912	     26.18200912	      9.59794339	     -9.42489268	     11.58144207	     -7.86567283	      8.28471769	      4.26244707	     38.00164907	    -15.73865697	     -6.98293320	     87.89519840	     44.60701551	      0.00000000	      0.00000000	     -9.39247174	     -6.79287371	      6.37785253	     27.60068718	     45.15021442	      0.00000000	      0.00000000
     56.14314286	     -3.85352254	     -4.61101313	      2.41380570	      1.02006765	      0.93282131	      0.45841956	      2.17368594	      4.87300866	    -20.18687898	      9.43029630	      9.43029630	     12.99277983	      9.49791650	     -2.18879674	     32.15191832	    -10.24128029	     -3.90232669	     23.59657527	     23.59657527	      9.55807485	     -8.08349813	     11.99351201	     -7.73116716	      8.25618530	      4.17734695	     38.81235831	    -15.68866957	     -6.90345558	     89.61549291	     44.56042084	      0.00000000	      0.00000000	     -9.85474199	     -6.86076241	      6.54175456	     27.25873986	     45.12131148	      0.00000000	      0.00000000
